<svg id="Layer_1" data-name="Layer 1" xmlns="http://www.w3.org/2000/svg" xmlns:xlink="http://www.w3.org/1999/xlink" viewBox="0 0 199.71 199.71"><defs><style>.cls-1{fill:#ffac00;}.cls-1,.cls-2{stroke:#ff8b00;}.cls-1,.cls-2,.cls-3,.cls-4{stroke-miterlimit:10;}.cls-2{fill:url(#radial-gradient);}.cls-3,.cls-4{fill:none;}.cls-3{stroke:#ff3000;}.cls-4{stroke:#000;stroke-linecap:round;stroke-width:2px;}</style><radialGradient id="radial-gradient" cx="99.72" cy="99.43" fy="109.13018452918828" r="72.19" gradientUnits="userSpaceOnUse"><stop offset="0" stop-color="#ffffb4"/><stop offset="0.41" stop-color="#ff0"/><stop offset="0.67" stop-color="#ff0"/><stop offset="0.78" stop-color="#fff600"/><stop offset="0.85" stop-color="#ffec00"/><stop offset="0.99" stop-color="#ffc300"/></radialGradient></defs><title>funsun</title><g id="rays"><path class="cls-1" d="M71.26,369.56l27.36-9.3a7,7,0,0,0,2.69-11.58l-18-18.05a7,7,0,0,0-11.58,2.69l-9.3,27.36A7,7,0,0,0,71.26,369.56Z" transform="translate(-34.46 -197.77)"/><path class="cls-1" d="M197.36,225.69,170,235a7,7,0,0,0-2.7,11.58l18.06,18.06a7,7,0,0,0,11.58-2.7l9.29-27.35A7,7,0,0,0,197.36,225.69Z" transform="translate(-34.46 -197.77)"/><path class="cls-1" d="M38.87,303.91l25.91,12.76a7,7,0,0,0,10.1-6.28V284.86a7,7,0,0,0-10.1-6.28L38.87,291.35A7,7,0,0,0,38.87,303.91Z" transform="translate(-34.46 -197.77)"/><path class="cls-1" d="M229.76,291.35l-25.92-12.77a7,7,0,0,0-10.09,6.28v25.53a7,7,0,0,0,10.09,6.28l25.92-12.76A7,7,0,0,0,229.76,291.35Z" transform="translate(-34.46 -197.77)"/><path class="cls-1" d="M62.38,234.58l9.3,27.35a7,7,0,0,0,11.58,2.7l18-18.06A7,7,0,0,0,98.62,235l-27.36-9.3A7,7,0,0,0,62.38,234.58Z" transform="translate(-34.46 -197.77)"/><path class="cls-1" d="M206.24,360.68,197,333.32a7,7,0,0,0-11.58-2.69l-18.06,18.05a7,7,0,0,0,2.7,11.58l27.35,9.3A7,7,0,0,0,206.24,360.68Z" transform="translate(-34.46 -197.77)"/><path class="cls-1" d="M128,202.18,115.27,228.1a7,7,0,0,0,6.28,10.09h25.53a7,7,0,0,0,6.28-10.09l-12.77-25.92A7,7,0,0,0,128,202.18Z" transform="translate(-34.46 -197.77)"/><path class="cls-1" d="M140.59,393.07l12.77-25.92a7,7,0,0,0-6.28-10.09H121.55a7,7,0,0,0-6.28,10.09L128,393.07A7,7,0,0,0,140.59,393.07Z" transform="translate(-34.46 -197.77)"/></g><circle id="sun" class="cls-2" cx="99.72" cy="99.43" r="72.19"/><circle id="l-eye" cx="88.72" cy="133.06" r="6.5"/><circle id="r-eye" cx="110.72" cy="133.06" r="6.5"/><circle id="l-cheek" class="cls-3" cx="60.97" cy="149.25" r="7.5"/><circle id="r0cheek" class="cls-3" cx="138.48" cy="149.25" r="7.5"/><path id="smile" class="cls-4" d="M115.33,352a30.51,30.51,0,0,0,21,7,30.08,30.08,0,0,0,17.34-7" transform="translate(-34.46 -197.77)"/></svg>