<?xml version="1.0" encoding="iso-8859-1"?>
<!-- Generator: Adobe Illustrator 20.1.0, SVG Export Plug-In . SVG Version: 6.00 Build 0)  -->
<svg xmlns="http://www.w3.org/2000/svg" xmlns:xlink="http://www.w3.org/1999/xlink" version="1.1" id="&#1057;&#1083;&#1086;&#1081;_1" x="0px" y="0px" viewBox="0 0 64 64" style="enable-background:new 0 0 64 64;" xml:space="preserve" width="96px" height="96px">
<linearGradient id="SVGID_1__44009" gradientUnits="userSpaceOnUse" x1="26.0226" y1="19.6667" x2="26.0226" y2="43.0024" spreadMethod="reflect">
	<stop offset="0" style="stop-color:#6DC7FF"/>
	<stop offset="1" style="stop-color:#E6ABFF"/>
</linearGradient>
<path style="fill-rule:evenodd;clip-rule:evenodd;fill:url(#SVGID_1__44009);" d="M35.925,30c0.68,5-1.371,12.17-9.761,12.17  C20.55,42.17,16,37.616,16,32.003c0-5.613,4.55-10.165,10.164-10.165c2.634,0,5.034,1.001,6.839,2.645  c-2.127,2.009-2.057,2.127-2.893,2.963c-1.044-0.864-2.183-1.484-3.946-1.484c-3.335,0-5.937,2.703-5.937,6.038  c0,3.335,2.603,6.038,5.937,6.038c3.295,0,4.552-1.421,5.413-4.03c-1.59,0-5.576,0.005-5.576,0.005V30C26,30,33.938,30,35.925,30z"/>
<linearGradient id="SVGID_2__44009" gradientUnits="userSpaceOnUse" x1="32" y1="4.6667" x2="32" y2="59.169" spreadMethod="reflect">
	<stop offset="0" style="stop-color:#1A6DFF"/>
	<stop offset="1" style="stop-color:#C822FF"/>
</linearGradient>
<path style="fill:url(#SVGID_2__44009);" d="M32,58C17.663,58,6,46.337,6,32S17.663,6,32,6s26,11.663,26,26S46.337,58,32,58z M32,8  C18.767,8,8,18.767,8,32s10.767,24,24,24s24-10.767,24-24S45.233,8,32,8z"/>
<linearGradient id="SVGID_3__44009" gradientUnits="userSpaceOnUse" x1="43.5" y1="25.3333" x2="43.5" y2="37.3749" spreadMethod="reflect">
	<stop offset="0" style="stop-color:#6DC7FF"/>
	<stop offset="1" style="stop-color:#E6ABFF"/>
</linearGradient>
<polygon style="fill-rule:evenodd;clip-rule:evenodd;fill:url(#SVGID_3__44009);" points="48,30 45,30 45,27 42,27 42,30 39,30 39,33   42,33 42,36 45,36 45,33 48,33 "/>
</svg>
